<svg xmlns="http://www.w3.org/2000/svg" width="1920" height="1080" viewBox="0 0 1920 1080">
  <defs>
    <linearGradient id="bg" x1="0" y1="0" x2="1" y2="1">
      <stop offset="0" stop-color="#071014"/>
      <stop offset="0.48" stop-color="#050608"/>
      <stop offset="1" stop-color="#0f1716"/>
    </linearGradient>
    <radialGradient id="glowA" cx="64%" cy="32%" r="42%">
      <stop offset="0" stop-color="#ff3b3b" stop-opacity=".34"/>
      <stop offset=".54" stop-color="#ff3b3b" stop-opacity=".06"/>
      <stop offset="1" stop-color="#ff3b3b" stop-opacity="0"/>
    </radialGradient>
    <radialGradient id="glowB" cx="28%" cy="76%" r="38%">
      <stop offset="0" stop-color="#db0505" stop-opacity=".22"/>
      <stop offset=".58" stop-color="#db0505" stop-opacity=".05"/>
      <stop offset="1" stop-color="#db0505" stop-opacity="0"/>
    </radialGradient>
    <filter id="blur">
      <feGaussianBlur stdDeviation="12"/>
    </filter>
  </defs>
  <rect width="1920" height="1080" fill="url(#bg)"/>
  <rect width="1920" height="1080" fill="url(#glowA)"/>
  <rect width="1920" height="1080" fill="url(#glowB)"/>
  <g opacity=".24" stroke="#f4f5f0" stroke-width="1">
    <path d="M0 156h1920M0 300h1920M0 444h1920M0 588h1920M0 732h1920M0 876h1920"/>
    <path d="M180 0v1080M360 0v1080M540 0v1080M720 0v1080M900 0v1080M1080 0v1080M1260 0v1080M1440 0v1080M1620 0v1080"/>
  </g>
  <g fill="none" stroke-linecap="round">
    <path d="M1094 186c178 58 284 176 316 354 30 166-18 288-144 366-128 80-318 78-478-4-150-77-230-204-206-330 27-146 174-252 354-277" stroke="#ff3b3b" stroke-width="2" opacity=".64"/>
    <path d="M1088 244c118 58 194 154 209 264 20 139-61 234-200 262-168 33-356-50-420-185-53-112 5-217 138-259" stroke="#db0505" stroke-width="2" opacity=".42"/>
  </g>
  <g filter="url(#blur)" opacity=".46">
    <circle cx="1190" cy="408" r="90" fill="#ff3b3b"/>
    <circle cx="818" cy="694" r="72" fill="#db0505"/>
  </g>
  <path d="M1410 228 1130 804 556 698 812 284Z" fill="#ffffff" opacity=".035"/>
</svg>
