<svg xmlns="http://www.w3.org/2000/svg" width="720" height="920" viewBox="0 0 720 920">
  <defs>
    <linearGradient id="bg" x1="0" x2="1" y1="0" y2="1">
      <stop stop-color="#121a1d"/>
      <stop offset="1" stop-color="#050608"/>
    </linearGradient>
    <radialGradient id="halo" cx="50%" cy="34%" r="48%">
      <stop stop-color="#ff3b3b" stop-opacity=".34"/>
      <stop offset=".62" stop-color="#ff3b3b" stop-opacity=".08"/>
      <stop offset="1" stop-color="#ff3b3b" stop-opacity="0"/>
    </radialGradient>
  </defs>
  <rect width="720" height="920" fill="url(#bg)"/>
  <rect width="720" height="920" fill="url(#halo)"/>
  <g opacity=".18" stroke="#fff">
    <path d="M120 0v920M240 0v920M360 0v920M480 0v920M600 0v920"/>
    <path d="M0 140h720M0 280h720M0 420h720M0 560h720M0 700h720M0 840h720"/>
  </g>
  <circle cx="360" cy="286" r="96" fill="#1c2729" stroke="#ff3b3b" stroke-opacity=".46"/>
  <path d="M210 790c14-196 83-298 150-298s136 102 150 298" fill="#111719" stroke="#db0505" stroke-opacity=".34"/>
  <path d="M288 292c36 44 108 44 144 0" fill="none" stroke="#f4f5f0" stroke-opacity=".36" stroke-width="8" stroke-linecap="round"/>
  <text x="62" y="92" fill="#db0505" font-family="Arial, sans-serif" font-size="26">WU BIN</text>
  <text x="62" y="132" fill="#f4f5f0" fill-opacity=".7" font-family="Arial, sans-serif" font-size="18">3D / AI VISUAL DESIGNER</text>
</svg>
